<svg xmlns="http://www.w3.org/2000/svg" viewBox="0 0 144 144" role="img" aria-label="Celestial cloud">
  <defs>
    <linearGradient id="cloudFill" x1="72" y1="31" x2="72" y2="111" gradientUnits="userSpaceOnUse">
      <stop offset="0" stop-color="#FFFFFF"/>
      <stop offset="0.56" stop-color="#F7FAFF"/>
      <stop offset="1" stop-color="#C9D6E8"/>
    </linearGradient>
    <linearGradient id="cloudRim" x1="34" y1="48" x2="111" y2="112" gradientUnits="userSpaceOnUse">
      <stop stop-color="#FFFFFF" stop-opacity="0.96"/>
      <stop offset="0.55" stop-color="#DCE7F5" stop-opacity="0.7"/>
      <stop offset="1" stop-color="#9FB1C9" stop-opacity="0.92"/>
    </linearGradient>
    <radialGradient id="cloudGlow" cx="0" cy="0" r="1" gradientTransform="translate(60 49) rotate(54) scale(67 78)" gradientUnits="userSpaceOnUse">
      <stop stop-color="#FFFFFF" stop-opacity="0.95"/>
      <stop offset="0.62" stop-color="#FFFFFF" stop-opacity="0.2"/>
      <stop offset="1" stop-color="#FFFFFF" stop-opacity="0"/>
    </radialGradient>
    <filter id="shadow" x="17" y="24" width="112" height="102" filterUnits="userSpaceOnUse" color-interpolation-filters="sRGB">
      <feDropShadow dx="0" dy="6" stdDeviation="5" flood-color="#23344C" flood-opacity="0.3"/>
    </filter>
  </defs>
  <g filter="url(#shadow)">
    <path
      fill="url(#cloudFill)"
      stroke="url(#cloudRim)"
      stroke-width="2.5"
      stroke-linejoin="round"
      d="M39.2 108.2C26.9 108.2 17 98.2 17 85.9c0-10.8 7.7-19.8 17.9-21.9a25.6 25.6 0 0 1 24.4-23.1c3 0 5.8.5 8.5 1.4A31.6 31.6 0 0 1 126.5 59c10.5 3.2 18.2 12.9 18.2 24.4 0 13.7-10.8 24.8-24.4 24.8H39.2Z"
    />
    <path
      fill="url(#cloudGlow)"
      d="M39.2 104.7c-10.4 0-18.7-8.4-18.7-18.8 0-9.7 7.4-17.7 16.9-18.6l1-.1v-1c.2-12.1 9.6-21.8 21-21.8 3.1 0 6.1.7 8.8 2l2 1 1-2A28.1 28.1 0 0 1 123 60.8l.5 1.9 1.9.3a21.1 21.1 0 0 1-3.7 41.7H39.2Z"
    />
    <path
      fill="none"
      stroke="#FFFFFF"
      stroke-width="3"
      stroke-linecap="round"
      stroke-opacity="0.72"
      d="M36 66.8c2.4-10.6 11.8-18.6 23.2-18.6 3.9 0 7.6.9 10.8 2.6 4.8-9.4 14.6-15.9 26-15.9 13.7 0 25.2 9.4 28.3 22"
    />
    <path
      fill="none"
      stroke="#9AAEC7"
      stroke-width="2.5"
      stroke-linecap="round"
      stroke-opacity="0.36"
      d="M47 105h70.5"
    />
  </g>
</svg>
